<?xml version="1.0" encoding="UTF-8"?>
<svg version="1.1" xmlns="http://www.w3.org/2000/svg" width="50" height="50">
<path d="M0 0 C0.36923077 5.41538462 0.36923077 5.41538462 -1.5 8.375 C-1.995 8.91125 -2.49 9.4475 -3 10 C-2.34 10.33 -1.68 10.66 -1 11 C-1.5639291 14.27078876 -2.45680431 15.86371562 -5 18 C-5.99 18.495 -5.99 18.495 -7 19 C-7.103125 19.61875 -7.20625 20.2375 -7.3125 20.875 C-8.29998917 23.92723925 -10.29631052 24.4173525 -13 26 C-13.68268138 27.32520503 -14.3507041 28.65812182 -15 30 C-16.33333333 30.66666667 -17.66666667 31.33333333 -19 32 C-19.33 32.66 -19.66 33.32 -20 34 C-21 36 -21 36 -22.625 37.3125 C-25.67930776 38.19664172 -27.99343979 37.66337824 -31.09375 37.16015625 C-33.55351088 36.95349601 -35.00358905 37.58587558 -37 39 C-37 36.33333333 -37 33.66666667 -37 31 C-37.061875 29.845 -37.12375 28.69 -37.1875 27.5 C-36.98857487 23.78673091 -36.63620576 22.53856851 -34 20 C-33.01 19.67 -32.02 19.34 -31 19 C-30.505 18.154375 -30.01 17.30875 -29.5 16.4375 C-29.005 15.633125 -28.51 14.82875 -28 14 C-27.01 14 -26.02 14 -25 14 C-24.566875 13.030625 -24.13375 12.06125 -23.6875 11.0625 C-22 8 -22 8 -19 7 C-18.34 7.33 -17.68 7.66 -17 8 C-16.87625 7.38125 -16.7525 6.7625 -16.625 6.125 C-16 4 -16 4 -14 2 C-13.278125 2.185625 -12.55625 2.37125 -11.8125 2.5625 C-7.16235294 3.28585621 -4.44240905 0 0 0 Z M-17 13 C-16 15 -16 15 -16 15 Z M-24 19 C-23.67 19.99 -23.34 20.98 -23 22 C-23 21.01 -23 20.02 -23 19 C-23.33 19 -23.66 19 -24 19 Z M-30 25 C-29.67 25.99 -29.34 26.98 -29 28 C-29 27.01 -29 26.02 -29 25 C-29.33 25 -29.66 25 -30 25 Z M-26 29 C-26 29.66 -26 30.32 -26 31 C-25.34 30.67 -24.68 30.34 -24 30 C-24.66 29.67 -25.32 29.34 -26 29 Z " fill="#F8A724" transform="translate(44,5)"/>
<path d="M0 0 C0.22179212 3.25295114 0.28601103 5.42797793 -1.1875 8.375 C-3 10 -3 10 -5.5625 10.3125 C-8 10 -8 10 -10 9 C-10.61875 9.825 -11.2375 10.65 -11.875 11.5 C-12.57625 12.325 -13.2775 13.15 -14 14 C-14.66 14 -15.32 14 -16 14 C-16.639375 14.99 -17.27875 15.98 -17.9375 17 C-18.9584375 18.485 -18.9584375 18.485 -20 20 C-20.99 20 -21.98 20 -23 20 C-23.66 21.98 -24.32 23.96 -25 26 C-26.32 26 -27.64 26 -29 26 C-29.2475 26.78375 -29.495 27.5675 -29.75 28.375 C-31.15389099 31.32317108 -32.00675737 31.9024777 -35 33 C-37 31 -37 31 -37.3125 27.625 C-36.99011445 23.88532766 -36.65714182 22.55872916 -34 20 C-33.01 19.67 -32.02 19.34 -31 19 C-30.505 18.154375 -30.01 17.30875 -29.5 16.4375 C-29.005 15.633125 -28.51 14.82875 -28 14 C-27.01 14 -26.02 14 -25 14 C-24.566875 13.030625 -24.13375 12.06125 -23.6875 11.0625 C-22 8 -22 8 -19 7 C-18.34 7.33 -17.68 7.66 -17 8 C-16.87625 7.38125 -16.7525 6.7625 -16.625 6.125 C-16 4 -16 4 -14 2 C-13.278125 2.185625 -12.55625 2.37125 -11.8125 2.5625 C-7.16235294 3.28585621 -4.44240905 0 0 0 Z " fill="#F9A724" transform="translate(44,5)"/>
<path d="M0 0 C0.99 0.99 1.98 1.98 3 3 C2.21625 3.4125 1.4325 3.825 0.625 4.25 C-2.07493765 5.73642619 -2.07493765 5.73642619 -3 8 C-4.37223833 10.74447666 -6.40213095 11.46792338 -9 13 C-9.33 13.99 -9.66 14.98 -10 16 C-12.5625 17.1875 -12.5625 17.1875 -15 18 C-13.19021683 12.24159899 -9.3570826 9.08622393 -4.8125 5.375 C-1.88119654 3.12277665 -1.88119654 3.12277665 0 0 Z " fill="#DD8B17" transform="translate(34,13)"/>
<path d="M0 0 C0.99 0.33 1.98 0.66 3 1 C2 4 2 4 -0.375 5.375 C-3.18191658 6.82788558 -3.18191658 6.82788558 -4.5625 9.6875 C-5.036875 10.450625 -5.51125 11.21375 -6 12 C-7.32 12 -8.64 12 -10 12 C-8.49433536 8.1673991 -6.19742787 6.49555346 -3 4 C-1.23676495 1.87396815 -1.23676495 1.87396815 0 0 Z " fill="#DE9016" transform="translate(16,31)"/>
</svg>
